<svg xmlns="http://www.w3.org/2000/svg" xmlns:xlink="http://www.w3.org/1999/xlink" viewBox="0 0 359.54 82.65"><defs><linearGradient id="linear-gradient" x1="292.05" y1="255.24" x2="292.05" y2="317.12" gradientUnits="userSpaceOnUse"><stop offset="0" stop-color="#7d91ae"/><stop offset="1" stop-color="#7a9ec1"/></linearGradient><linearGradient id="linear-gradient-2" x1="292.05" y1="262.35" x2="292.05" y2="317.12" gradientUnits="userSpaceOnUse"><stop offset="0" stop-color="#d3dbe5"/><stop offset="1" stop-color="#d3dee9"/></linearGradient></defs><title>Solarquotes_Sign_Logo_(RGB)_v2</title><g id="Sign"><rect x="54.77" y="53.88" width="8.33" height="8" style="fill:#fff"/><path d="M292,255.24c-32.55,0-58.93,26.65-58.93,59.53,0,.79.06,2.36.06,2.36h43.21V302.45H273l19-18.67,9.11,8.95V288h4v8.71l5.89,5.79h-3.33v14.67h43.21s.06-1.57.06-2.36C351,281.89,324.59,255.24,292,255.24Z" transform="translate(-233.11 -255.24)" style="fill:url(#linear-gradient)"/><path d="M292,262.35c-28.67,0-51.92,23.48-51.92,52.44,0,.78,0,1.56.06,2.33h36.19V302.45H273l19-18.67,9.11,8.95V288h4v8.71l5.89,5.79h-3.33v14.67h36.19c0-.77.06-1.55.06-2.33C344,285.83,320.72,262.35,292,262.35Z" transform="translate(-233.11 -255.24)" style="fill:url(#linear-gradient-2)"/><path d="M292,269.43c-24.8,0-44.9,20.31-44.9,45.35q0,1.17.06,2.33h29.18V302.45H273l19-18.67,9.11,8.95V288h4v8.71l5.89,5.79h-3.33v14.67h29.18q.06-1.16.06-2.33C336.95,289.74,316.84,269.43,292,269.43Z" transform="translate(-233.11 -255.24)" style="fill:#fff"/></g><g id="Logo"><path d="M374.19,295.61h0a27.11,27.11,0,0,1-2.88-2.22c-1.86-1.56-2.65-3-2.65-5,0-4.65,2.31-4.65,3.42-4.65a3,3,0,0,1,2.57,1.06,6.59,6.59,0,0,1,.85,3.64v.25a2.82,2.82,0,0,0,5.64,0v-.1a11.88,11.88,0,0,0-2.1-7.3,8.37,8.37,0,0,0-7-3.1c-5.78.06-9.09,3.83-9.09,10.35a9.8,9.8,0,0,0,1.14,4.91,16.7,16.7,0,0,0,5.88,6.06c1,.74,2,1.44,2.88,2.17,1.86,1.62,2.62,3.06,2.62,5,0,4.65-2.46,4.65-3.51,4.65s-3.51,0-3.51-4.65v-.84a2.82,2.82,0,1,0-5.64,0v.69a11.28,11.28,0,0,0,2.13,7.23c1.08,1.45,3.19,3.17,7.08,3.17a8.52,8.52,0,0,0,7.11-3.15,11.58,11.58,0,0,0,2.1-7.25,10.3,10.3,0,0,0-1.11-4.9A18.39,18.39,0,0,0,374.19,295.61Z" transform="translate(-233.11 -255.24)" style="fill:#fff"/><path d="M392.58,278.22a8.5,8.5,0,0,0-7.11,3.14,11.81,11.81,0,0,0-2.2,7.35v17.72a11.51,11.51,0,0,0,2.18,7.28,8.41,8.41,0,0,0,7.13,3.22,8.74,8.74,0,0,0,7.19-3.17,11.53,11.53,0,0,0,2.22-7.33V288.71a11.82,11.82,0,0,0-2.22-7.37A9,9,0,0,0,392.58,278.22Zm3.66,28.36c0,4.8-2.76,4.8-3.66,4.8s-3.56,0-3.56-4.8v-18c0-4.8,2.59-4.8,3.56-4.8s3.66,0,3.66,4.8Z" transform="translate(-233.11 -255.24)" style="fill:#fff"/><path d="M417.63,311.09h-7v-29.7a2.87,2.87,0,0,0-5.74,0v35.25h12.74a2.77,2.77,0,0,0,0-5.54Z" transform="translate(-233.11 -255.24)" style="fill:#fff"/><path d="M436.39,282a4.54,4.54,0,0,0-4.34-3.56,4.6,4.6,0,0,0-4.39,3.56l-5.78,31.26,0,.11a2.93,2.93,0,0,0,.61,2.27,2.58,2.58,0,0,0,2,1,2.69,2.69,0,0,0,2.55-2.14l1.05-4.68H436l1,4.51a2.69,2.69,0,0,0,2.65,2.32,2.64,2.64,0,0,0,2.1-1.06,2.93,2.93,0,0,0,.54-2.38Zm-7.27,22.05L432,285.59l2.91,18.49Z" transform="translate(-233.11 -255.24)" style="fill:#fff"/><path d="M462.19,310.74v-5.4c0-3.6-1.21-5.78-2.8-7.1,1.83-1.56,2.8-4,2.8-7.16v-3c0-6.16-3.25-9.55-9.16-9.55h-9v35.25a2.87,2.87,0,1,0,5.74,0V301.14h1.88a6.19,6.19,0,0,1,3.68.82c.26.21,1.07.84,1.07,3.34v5.44a12.14,12.14,0,0,0,.48,4,2.86,2.86,0,0,0,2.68,1.93,2.89,2.89,0,0,0,2.29-1.14,2.77,2.77,0,0,0,.48-2.39A11.46,11.46,0,0,1,462.19,310.74Zm-12.37-26.68H453c2.19,0,3.46.69,3.46,4.21v3.27c0,1.66-.34,2.76-1,3.28a6.36,6.36,0,0,1-3.69.78h-1.93Z" transform="translate(-233.11 -255.24)" style="fill:#fff"/><path d="M502.76,278.52a2.83,2.83,0,0,0-2.82,2.77v25.25a7,7,0,0,1-.82,3.7,2.85,2.85,0,0,1-2.65,1.15,2.73,2.73,0,0,1-2.6-1.15,6.54,6.54,0,0,1-.87-3.7V281.39a2.87,2.87,0,0,0-5.74,0v25a11.87,11.87,0,0,0,2.08,7.28,9.4,9.4,0,0,0,14.16,0,11.75,11.75,0,0,0,2-7.28V281.29A2.81,2.81,0,0,0,502.76,278.52Z" transform="translate(-233.11 -255.24)" style="fill:#fff"/><path d="M517.33,278.22a8.5,8.5,0,0,0-7.11,3.14,11.81,11.81,0,0,0-2.2,7.35v17.72a11.5,11.5,0,0,0,2.18,7.28,8.41,8.41,0,0,0,7.13,3.22,8.74,8.74,0,0,0,7.19-3.17,11.53,11.53,0,0,0,2.21-7.33V288.71a11.82,11.82,0,0,0-2.21-7.37A9,9,0,0,0,517.33,278.22ZM521,306.58c0,4.8-2.76,4.8-3.66,4.8s-3.56,0-3.56-4.8v-18c0-4.8,2.59-4.8,3.56-4.8s3.66,0,3.66,4.8Z" transform="translate(-233.11 -255.24)" style="fill:#fff"/><path d="M543.1,278.52H529.91a2.77,2.77,0,0,0,0,5.54h3.75v29.7a2.87,2.87,0,1,0,5.74,0v-29.7h3.7a2.77,2.77,0,0,0,0-5.54Z" transform="translate(-233.11 -255.24)" style="fill:#fff"/><path d="M561.77,284.06a2.77,2.77,0,1,0,0-5.54H547.41v38.12h14.36a2.77,2.77,0,0,0,0-5.54h-8.61v-11h6.68a2.77,2.77,0,0,0,0-5.54h-6.68v-10.5Z" transform="translate(-233.11 -255.24)" style="fill:#fff"/><path d="M582.16,301.67l0,0a18.42,18.42,0,0,0-5.88-6,27.12,27.12,0,0,1-2.88-2.22c-1.86-1.56-2.65-3-2.65-5,0-4.65,2.31-4.65,3.42-4.65a3,3,0,0,1,2.57,1.06,6.58,6.58,0,0,1,.85,3.64v.25a2.82,2.82,0,0,0,5.64,0v-.1a11.88,11.88,0,0,0-2.1-7.3,8.37,8.37,0,0,0-7-3.1c-5.78.06-9.09,3.83-9.09,10.35a9.81,9.81,0,0,0,1.14,4.91,16.7,16.7,0,0,0,5.88,6.05c1,.71,2,1.44,2.89,2.17,1.86,1.62,2.62,3.06,2.62,5,0,4.65-2.46,4.65-3.52,4.65s-3.51,0-3.51-4.65v-.84a2.82,2.82,0,1,0-5.64,0v.69a11.29,11.29,0,0,0,2.13,7.23c1.08,1.45,3.19,3.17,7.08,3.17a8.52,8.52,0,0,0,7.11-3.15,11.58,11.58,0,0,0,2.1-7.25A10.28,10.28,0,0,0,582.16,301.67Z" transform="translate(-233.11 -255.24)" style="fill:#fff"/><path d="M592.66,281.61a5,5,0,0,1-.38,2,4.63,4.63,0,0,1-2.56,2.52,4.78,4.78,0,0,1-1.81.35,4.91,4.91,0,0,1-1.93-.37,4.52,4.52,0,0,1-1.51-1,4.7,4.7,0,0,1-1-1.54,5.14,5.14,0,0,1-.36-1.93,5,5,0,0,1,.38-2,4.61,4.61,0,0,1,2.57-2.52,4.85,4.85,0,0,1,1.83-.35,4.77,4.77,0,0,1,1.81.35,4.72,4.72,0,0,1,1.52,1,4.67,4.67,0,0,1,1,1.53A5,5,0,0,1,592.66,281.61Zm-1,0a4.46,4.46,0,0,0-.29-1.62,3.81,3.81,0,0,0-.79-1.27,3.58,3.58,0,0,0-1.18-.83,3.63,3.63,0,0,0-1.46-.29,3.71,3.71,0,0,0-1.48.29,3.56,3.56,0,0,0-1.19.83,3.82,3.82,0,0,0-.79,1.27,4.48,4.48,0,0,0-.29,1.63,4.62,4.62,0,0,0,.26,1.56,3.82,3.82,0,0,0,.75,1.27,3.55,3.55,0,0,0,1.18.86,3.67,3.67,0,0,0,1.56.32,3.63,3.63,0,0,0,1.46-.29,3.57,3.57,0,0,0,1.18-.83,3.81,3.81,0,0,0,.79-1.27A4.45,4.45,0,0,0,591.62,281.61Zm-4.68,2.78h-.88V279h2a2.46,2.46,0,0,1,1.47.36,1.37,1.37,0,0,1,.49,1.18,1.31,1.31,0,0,1-.4,1.07,1.82,1.82,0,0,1-1,.4l1.51,2.37h-1l-1.39-2.3h-.83Zm1-3.06.47,0a1,1,0,0,0,.4-.11.73.73,0,0,0,.27-.25.86.86,0,0,0,.1-.46.63.63,0,0,0-.11-.39.74.74,0,0,0-.28-.22,1.14,1.14,0,0,0-.38-.1l-.4,0h-1.07v1.57Z" transform="translate(-233.11 -255.24)" style="fill:#fff"/><path d="M486.33,314.47a2.78,2.78,0,0,0-2.09-.8c-.85,0-1.28,0-1.59-.31s.37-1,.5-1.35a13.05,13.05,0,0,0,1.08-5.56V288.72a11.82,11.82,0,0,0-2.21-7.37,9.73,9.73,0,0,0-14.3,0,11.81,11.81,0,0,0-2.2,7.35v17.72a11.52,11.52,0,0,0,2.2,7.3,8.69,8.69,0,0,0,7.16,3.19A9.45,9.45,0,0,0,479,316a7.55,7.55,0,0,0,5,2.45,2.67,2.67,0,0,0,3.09-2A2.26,2.26,0,0,0,486.33,314.47Zm-7.84-7.88c0,4.8-2.63,4.8-3.61,4.8s-3.61,0-3.61-4.8v-18c0-4.8,2.63-4.8,3.61-4.8s3.61,0,3.61,4.8Z" transform="translate(-233.11 -255.24)" style="fill:#fff"/><path d="M371.91,324.92a4.14,4.14,0,0,0-2.49-.71,6,6,0,0,0-1.21.12,3.21,3.21,0,0,0-1.06.41,2.16,2.16,0,0,0-.74.77,2.38,2.38,0,0,0-.28,1.2,1.52,1.52,0,0,0,.4,1.1,3,3,0,0,0,1.07.69,9,9,0,0,0,1.51.44l1.71.38q.87.21,1.71.48a5.62,5.62,0,0,1,1.51.75,3.57,3.57,0,0,1,1.07,1.19,4.17,4.17,0,0,1-.12,3.8,4.31,4.31,0,0,1-1.34,1.35,5.82,5.82,0,0,1-1.83.76,8.89,8.89,0,0,1-2,.24,8.57,8.57,0,0,1-2.33-.31,5.75,5.75,0,0,1-1.93-.93,4.42,4.42,0,0,1-1.31-1.6,5.14,5.14,0,0,1-.48-2.31h1.85a3.31,3.31,0,0,0,.36,1.59,3.25,3.25,0,0,0,.94,1.1,4,4,0,0,0,1.36.64,6.25,6.25,0,0,0,1.6.21,7.27,7.27,0,0,0,1.32-.12,3.9,3.9,0,0,0,1.2-.42,2.25,2.25,0,0,0,1.19-2.12,1.84,1.84,0,0,0-.4-1.23,2.94,2.94,0,0,0-1.07-.77,7.75,7.75,0,0,0-1.51-.48l-1.71-.38q-.87-.19-1.71-.45a6.15,6.15,0,0,1-1.51-.68,3.24,3.24,0,0,1-1.07-1.09,3.2,3.2,0,0,1-.4-1.67,3.88,3.88,0,0,1,.45-1.92,3.94,3.94,0,0,1,1.2-1.33,5.38,5.38,0,0,1,1.7-.78,7.51,7.51,0,0,1,2-.26,7.82,7.82,0,0,1,2.09.27,4.75,4.75,0,0,1,1.69.84,4.07,4.07,0,0,1,1.15,1.45,5.18,5.18,0,0,1,.46,2.08H373A3.05,3.05,0,0,0,371.91,324.92Z" transform="translate(-233.11 -255.24)" style="fill:#fff"/><path d="M380.1,322.92v14.64h-1.95V322.92Z" transform="translate(-233.11 -255.24)" style="fill:#fff"/><path d="M385.63,322.92l7.71,11.87h0V322.92h1.85v14.64H393.1l-7.65-11.75h0v11.75h-1.84V322.92Z" transform="translate(-233.11 -255.24)" style="fill:#fff"/><path d="M407.44,325a4.52,4.52,0,0,0-2.65-.78,4.75,4.75,0,0,0-2.24.49A4.42,4.42,0,0,0,401,326a5.7,5.7,0,0,0-.89,1.9,8.45,8.45,0,0,0-.29,2.21,9.45,9.45,0,0,0,.29,2.37,5.66,5.66,0,0,0,.89,1.95,4.41,4.41,0,0,0,1.55,1.32,4.81,4.81,0,0,0,2.25.49,4.35,4.35,0,0,0,1.71-.32,3.86,3.86,0,0,0,1.29-.88,4,4,0,0,0,.85-1.34A5.57,5.57,0,0,0,409,332H411a6.65,6.65,0,0,1-1.91,4.3,6.17,6.17,0,0,1-4.43,1.54,7.07,7.07,0,0,1-3-.58,5.84,5.84,0,0,1-2.11-1.61,6.9,6.9,0,0,1-1.26-2.42,10.32,10.32,0,0,1-.42-3,9.75,9.75,0,0,1,.45-3,7.23,7.23,0,0,1,1.32-2.45,6.16,6.16,0,0,1,2.17-1.65,7,7,0,0,1,3-.6,7.52,7.52,0,0,1,2.17.31,5.87,5.87,0,0,1,1.82.9,5.09,5.09,0,0,1,1.33,1.49,5.45,5.45,0,0,1,.7,2.06h-1.95A3.62,3.62,0,0,0,407.44,325Z" transform="translate(-233.11 -255.24)" style="fill:#fff"/><path d="M423.7,322.92v1.64h-8.16v4.65h7.61v1.64h-7.61v5.06h8.22v1.64H413.6V322.92Z" transform="translate(-233.11 -255.24)" style="fill:#fff"/><path d="M431.76,326.12a4.35,4.35,0,0,1,.89-1.63,4.18,4.18,0,0,1,1.51-1.08,5.12,5.12,0,0,1,2-.39,5.57,5.57,0,0,1,1.77.28,4.31,4.31,0,0,1,1.45.8,3.73,3.73,0,0,1,1,1.3,4.27,4.27,0,0,1,.36,1.8,4.52,4.52,0,0,1-.3,1.7,4.83,4.83,0,0,1-.79,1.32,6.6,6.6,0,0,1-1.13,1.06q-.64.47-1.31.9l-1.35.81a10.79,10.79,0,0,0-1.24.85,5.6,5.6,0,0,0-1,1,2.75,2.75,0,0,0-.52,1.2h7.46v1.54h-9.49a7.72,7.72,0,0,1,.46-2.2,5.91,5.91,0,0,1,.91-1.59,6.86,6.86,0,0,1,1.25-1.19q.7-.51,1.46-1,.92-.57,1.62-1.06a7.16,7.16,0,0,0,1.16-1,3.27,3.27,0,0,0,.93-2.4,2.51,2.51,0,0,0-.23-1.08,2.58,2.58,0,0,0-1.5-1.36,3.18,3.18,0,0,0-1.09-.18,2.54,2.54,0,0,0-1.3.32,2.74,2.74,0,0,0-.89.83,3.47,3.47,0,0,0-.5,1.16,4.93,4.93,0,0,0-.13,1.3h-1.74A5.88,5.88,0,0,1,431.76,326.12Z" transform="translate(-233.11 -255.24)" style="fill:#fff"/><path d="M443.14,328.76a11.31,11.31,0,0,1,.21-1.68,8.26,8.26,0,0,1,.47-1.56,4.14,4.14,0,0,1,.84-1.29,3.83,3.83,0,0,1,1.34-.88,5.88,5.88,0,0,1,3.88,0,3.83,3.83,0,0,1,1.34.88,4.14,4.14,0,0,1,.84,1.29,8.26,8.26,0,0,1,.47,1.56,11.31,11.31,0,0,1,.21,1.68q0,.86,0,1.66t0,1.66a11.28,11.28,0,0,1-.21,1.68,8,8,0,0,1-.47,1.55,4.16,4.16,0,0,1-.84,1.28,3.73,3.73,0,0,1-1.33.87,6.1,6.1,0,0,1-3.88,0,3.72,3.72,0,0,1-1.34-.87,4.16,4.16,0,0,1-.84-1.28,8,8,0,0,1-.47-1.55,11.28,11.28,0,0,1-.21-1.68q0-.86,0-1.66T443.14,328.76Zm1.86,3.48a7.73,7.73,0,0,0,.33,1.91,3.6,3.6,0,0,0,.89,1.51,2.72,2.72,0,0,0,3.44,0,3.6,3.6,0,0,0,.89-1.51,7.73,7.73,0,0,0,.33-1.91q.05-1,.05-1.83,0-.53,0-1.18a10.28,10.28,0,0,0-.1-1.29,9.6,9.6,0,0,0-.27-1.26,3.34,3.34,0,0,0-.51-1.08,2.63,2.63,0,0,0-.85-.75,2.87,2.87,0,0,0-2.5,0,2.64,2.64,0,0,0-.85.75,3.34,3.34,0,0,0-.51,1.08,9.6,9.6,0,0,0-.27,1.26,10.28,10.28,0,0,0-.1,1.29q0,.65,0,1.18Q444.94,331.22,445,332.24Z" transform="translate(-233.11 -255.24)" style="fill:#fff"/><path d="M454.74,328.76a11.18,11.18,0,0,1,.21-1.68,8.19,8.19,0,0,1,.47-1.56,4.14,4.14,0,0,1,.84-1.29,3.83,3.83,0,0,1,1.34-.88,5.88,5.88,0,0,1,3.88,0,3.83,3.83,0,0,1,1.34.88,4.14,4.14,0,0,1,.84,1.29,8.26,8.26,0,0,1,.47,1.56,11.31,11.31,0,0,1,.21,1.68q0,.86,0,1.66t0,1.66a11.28,11.28,0,0,1-.21,1.68,8,8,0,0,1-.47,1.55,4.16,4.16,0,0,1-.84,1.28,3.73,3.73,0,0,1-1.33.87,6.1,6.1,0,0,1-3.88,0,3.72,3.72,0,0,1-1.34-.87,4.16,4.16,0,0,1-.84-1.28,7.9,7.9,0,0,1-.47-1.55,11.15,11.15,0,0,1-.21-1.68c0-.57,0-1.13,0-1.66S454.71,329.34,454.74,328.76Zm1.85,3.48a7.73,7.73,0,0,0,.33,1.91,3.61,3.61,0,0,0,.89,1.51,2.72,2.72,0,0,0,3.44,0,3.6,3.6,0,0,0,.89-1.51,7.73,7.73,0,0,0,.33-1.91q.05-1,.05-1.83,0-.53,0-1.18a10.28,10.28,0,0,0-.1-1.29,9.6,9.6,0,0,0-.27-1.26,3.34,3.34,0,0,0-.51-1.08,2.63,2.63,0,0,0-.85-.75,2.87,2.87,0,0,0-2.5,0,2.64,2.64,0,0,0-.85.75,3.34,3.34,0,0,0-.51,1.08,9.6,9.6,0,0,0-.27,1.26,10.28,10.28,0,0,0-.1,1.29q0,.65,0,1.18Q456.54,331.22,456.59,332.24Z" transform="translate(-233.11 -255.24)" style="fill:#fff"/><path d="M469,335.69a2.9,2.9,0,0,0,1.8.57,2.6,2.6,0,0,0,2.4-1.38,9.26,9.26,0,0,0,.88-4.23l0,0a3.8,3.8,0,0,1-3.36,2,5.07,5.07,0,0,1-2-.36,4,4,0,0,1-1.45-1,4.15,4.15,0,0,1-.88-1.54,6.25,6.25,0,0,1-.3-2,5.1,5.1,0,0,1,.35-1.92,4.31,4.31,0,0,1,1-1.5,4.49,4.49,0,0,1,1.52-1,5.19,5.19,0,0,1,1.93-.35,5.76,5.76,0,0,1,1.93.32,3.69,3.69,0,0,1,1.58,1.1,5.67,5.67,0,0,1,1.08,2.12,12.24,12.24,0,0,1,.4,3.41,11.45,11.45,0,0,1-1.2,5.79,4.13,4.13,0,0,1-3.84,2,4.86,4.86,0,0,1-3-.92,3.74,3.74,0,0,1-1.37-2.81h1.74A2.22,2.22,0,0,0,469,335.69Zm4.58-9.08a3.25,3.25,0,0,0-.57-1.06,2.73,2.73,0,0,0-.93-.73,2.94,2.94,0,0,0-1.29-.27,2.8,2.8,0,0,0-1.32.29,2.47,2.47,0,0,0-.88.77,3.27,3.27,0,0,0-.49,1.1A5.31,5.31,0,0,0,468,328a3.14,3.14,0,0,0,.21,1.15,3.27,3.27,0,0,0,.59,1,2.88,2.88,0,0,0,.9.69,2.59,2.59,0,0,0,1.16.26,2.89,2.89,0,0,0,1.23-.26,2.81,2.81,0,0,0,.94-.7,3,3,0,0,0,.59-1,3.66,3.66,0,0,0,.21-1.22A4.06,4.06,0,0,0,473.63,326.61Z" transform="translate(-233.11 -255.24)" style="fill:#fff"/></g></svg>