<?xml version="1.0" encoding="UTF-8"?>
<svg width="16px" height="15px" viewBox="0 0 16 15" version="1.1" xmlns="http://www.w3.org/2000/svg" xmlns:xlink="http://www.w3.org/1999/xlink">
    <!-- Generator: Sketch 55.2 (78181) - https://sketchapp.com -->
    <title>Group Copy</title>
    <desc>Created with Sketch.</desc>
    <g id="CTA-s" stroke="none" stroke-width="1" fill="none" fill-rule="evenodd">
        <g id="Group-Copy" fill="#fff">
            <g id="Group-3-Copy-2" transform="translate(0.500000, 0.000000)">
                <path d="M1.00020833,14.8129167 L12.666875,14.8129167 C13.1250417,14.8129167 13.5002083,14.43775 13.5002083,13.9795833 L13.5002083,7.31291667 L11.8335417,7.31291667 L11.8335417,13.14625 L1.83354167,13.14625 L1.83354167,3.14625 L7.666875,3.14625 L7.666875,1.47958333 L1.00020833,1.47958333 C0.542041667,1.47958333 0.166875,1.85475 0.166875,2.31291667 L0.166875,13.9795833 C0.166875,14.43775 0.542041667,14.8129167 1.00020833,14.8129167 Z" id="Fill-1"></path>
                <polygon id="Fill-2" points="6.60395833 7.22895833 7.77095833 8.39595833 13.166375 3.02075 13.166375 4.83308333 14.8330417 4.83308333 14.8330417 0.187041667 10.1667917 0.187041667 10.1667917 1.85370833 11.979125 1.85370833"></polygon>
            </g>
        </g>
    </g>
</svg>
